# xmcd
#
# Track frame offsets: 
#        150
#        14929
#        25032
#        34927
#        51182
#
# Disc length: 968 seconds
#
# Revision: 0
# Processed by: cddbd v1.5.2PL0 Copyright (c) Steve Scherf et al.
# Submitted via: ExactAudioCopy v1.0b3
#
DISCID=3d03c605
DTITLE=The Impossebulls - Five By Five III: Greed
DYEAR=2016
DGENRE=Rap
TTITLE0=You Forgot- Forget It
TTITLE1=The BizBoxx
TTITLE2=Liars and Conmen
TTITLE3=Devil's Pie
TTITLE4=No Country For Old Men
EXTD=
EXTT0=
EXTT1=
EXTT2=
EXTT3=
EXTT4=
PLAYORDER=
